<?xml version="1.0" encoding="UTF-8"?>
<!-- Generator: Adobe Illustrator 26.0.1, SVG Export Plug-In . SVG Version: 6.00 Build 0)  -->
<svg version="1.1" id="Layer_1" xmlns="http://www.w3.org/2000/svg" xmlns:xlink="http://www.w3.org/1999/xlink" x="0px" y="0px" viewBox="0 0 300 300" style="enable-background:new 0 0 300 300;" xml:space="preserve">
<style type="text/css">
	.st0{fill:#010101;}
	.st1{fill-rule:evenodd;clip-rule:evenodd;fill:#010101;}
</style>
<path class="st0" d="M250.76,186.14c5-5,8.77-10.69,11.22-16.92c2.47-6.66,3.69-13.03,3.69-19.35c0-6.54-1.38-12.96-4.09-19.07  c-2.57-6.51-6.34-12.2-11.34-17.2c-5-5-10.69-8.77-16.91-11.22c-6.66-2.47-13.04-3.69-19.35-3.69c-6.93,0-13.23,1.2-19.27,3.66  c-6.31,2.48-12,6.25-17,11.25l-18.86,18.86l8.45,8.45l18.61-18.91c10.75-10.43,25.63-13.99,40.01-9.71c2.2,0.73,3.8,1.39,5.58,2.28  c16.72,8.83,24.87,26.92,20.41,45.07c-1.05,3.85-2.37,6.99-4.2,10.04c-7.78,13.08-21.51,20.32-36.79,19.34  c-9.59-0.62-18.47-4.76-25.69-11.98l-63.45-63.45c-5-5-10.69-8.77-16.91-11.22c-6.66-2.47-13.03-3.69-19.35-3.69  c-6.93,0-13.23,1.2-19.27,3.66c-6.31,2.48-12,6.25-17,11.25s-8.77,10.69-11.22,16.91c-2.47,6.66-3.69,13.03-3.69,19.35  c0,6.43,1.29,12.85,3.95,19.61c2.45,6.23,6.22,11.92,11.22,16.91c5,5,10.69,8.77,16.92,11.22c6.66,2.47,13.03,3.69,19.35,3.69  c6.93,0,13.23-1.2,19.27-3.66c6.31-2.48,12-6.25,16.99-11.25l18.47-18.47l-8.56-8.56l-18.47,18.47  c-10.65,10.33-25.54,13.89-39.91,9.61c-2.2-0.73-3.8-1.39-5.58-2.28c-16.72-8.83-24.87-26.92-20.41-45.08  c1.05-3.86,2.37-7,4.2-10.04c7.78-13.08,21.53-20.32,36.79-19.34c9.6,0.62,18.48,4.76,25.69,11.98l22.2,22.2l41.75,41.22  c5.03,5.03,10.72,8.8,16.94,11.25c6.66,2.47,13.03,3.69,19.35,3.69c6.93,0,13.23-1.2,19.27-3.66  C240.07,194.91,245.76,191.13,250.76,186.14z"/>
</svg>